<svg width="214" height="232" viewBox="0 0 214 232" fill="none" xmlns="http://www.w3.org/2000/svg">
<rect width="214" height="214" rx="32" fill="#CDEB63"/>
<ellipse cx="24.6948" cy="19.4247" rx="7.69475" ry="7.42475" fill="#262626"/>
<ellipse cx="45.4155" cy="19.1642" rx="7.42476" ry="7.16424" fill="#262626"/>
<ellipse cx="66.1429" cy="19.2532" rx="7.51693" ry="7.25316" fill="#262626"/>
<path d="M64 17.875V16.5H65.375V17.875H64ZM66.75 17.875V16.5H68.125V17.875H66.75ZM66.75 20.625H65.375V17.875H66.75V20.625ZM65.375 20.625V22H64V20.625H65.375ZM66.75 22V20.625H68.125V22H66.75Z" fill="#FFFCFC"/>
<path d="M21 19.75V17.625H27.375V19.75H21Z" fill="white"/>
<rect x="42" y="17.1445" width="4.71525" height="4.82752" fill="white"/>
<rect x="43.2852" y="16" width="4.71525" height="4.82752" fill="white"/>
<path d="M29 171V165H35V171H29ZM29 177H23V171H29V177ZM23 177V183H17V177H23ZM23 189V183H29V189H23ZM29 189H35V195H29V189ZM47 177V165H53V177H47ZM47 195H41V177H47V195ZM59 171V165H65V171H59ZM65 177V171H71V177H65ZM71 177H77V183H71V177ZM71 189H65V183H71V189ZM65 189V195H59V189H65Z" fill="#262626"/>
</svg>
